<svg width="75" height="63" viewBox="0 0 75 63" fill="none" xmlns="http://www.w3.org/2000/svg">
<path d="M41.8753 4.93231C49.7366 -1.40708 61.3169 -0.946155 68.6375 6.3148C76.4542 14.068 76.4541 26.6385 68.6375 34.3917L57.0953 45.84C58.6251 40.6577 58.0445 34.9929 55.353 30.1773L58.9491 26.3791C62.0494 23.1043 61.8863 17.9566 58.5847 14.8815C56.001 12.475 52.2609 12.0509 49.2708 13.5496C48.3591 9.63063 45.5605 6.42817 41.8753 4.93231Z" fill="#F2C40E"/>
<path d="M6.36238 6.31506C13.6178 -0.881419 25.0577 -1.39796 32.914 4.76506C29.0902 6.15279 26.1474 9.35357 25.1427 13.3178C22.2456 12.1047 18.7743 12.6091 16.3344 14.882C13.0333 17.9573 12.8705 23.1048 15.9708 26.3793L19.3978 29.9987C16.7049 34.7041 16.045 40.2436 17.4183 45.3579L6.36238 34.3917C-1.4541 26.6386 -1.45415 14.0682 6.36238 6.31506Z" fill="#F2C40E"/>
<path fill-rule="evenodd" clip-rule="evenodd" d="M28.9893 25.2191C31.2182 27.3363 34.2416 28.6373 37.5714 28.6373C40.8562 28.6373 43.8424 27.3709 46.0623 25.3042C47.332 26.0333 48.5282 26.9365 49.6148 28.0143C56.3325 34.6775 56.3325 45.4807 49.6148 52.1439L40.3919 61.2919C38.7678 62.9027 36.1347 62.9027 34.5106 61.2919L25.2876 52.1439C18.5699 45.4807 18.5699 34.6775 25.2876 28.0143C26.4168 26.8943 27.6639 25.9626 28.9893 25.2191ZM42.2923 35.8347C39.7408 33.3039 35.6039 33.3039 33.0524 35.8347C30.501 38.3655 30.5009 42.4688 33.0524 44.9995L37.6723 49.5818L42.2923 44.9995C44.8438 42.4688 44.8438 38.3655 42.2923 35.8347Z" fill="#F2C40E"/>
<path d="M46.1365 16.4606C46.1365 21.2851 42.1935 25.1961 37.3295 25.1961C32.4655 25.1961 28.5225 21.2851 28.5225 16.4606C28.5225 11.6362 32.4655 7.72518 37.3295 7.72518C42.1935 7.72518 46.1365 11.6362 46.1365 16.4606Z" fill="#F2C40E"/>
<path d="M41.8753 4.93231C49.7366 -1.40708 61.3169 -0.946155 68.6375 6.3148C76.4542 14.068 76.4541 26.6385 68.6375 34.3917L57.0953 45.84C58.6251 40.6577 58.0445 34.9929 55.353 30.1773L58.9491 26.3791C62.0494 23.1043 61.8863 17.9566 58.5847 14.8815C56.001 12.475 52.2609 12.0509 49.2708 13.5496C48.3591 9.63063 45.5605 6.42817 41.8753 4.93231Z" stroke="#F8F8F8"/>
<path d="M6.36238 6.31506C13.6178 -0.881419 25.0577 -1.39796 32.914 4.76506C29.0902 6.15279 26.1474 9.35357 25.1427 13.3178C22.2456 12.1047 18.7743 12.6091 16.3344 14.882C13.0333 17.9573 12.8705 23.1048 15.9708 26.3793L19.3978 29.9987C16.7049 34.7041 16.045 40.2436 17.4183 45.3579L6.36238 34.3917C-1.4541 26.6386 -1.45415 14.0682 6.36238 6.31506Z" stroke="#F8F8F8"/>
<path fill-rule="evenodd" clip-rule="evenodd" d="M28.9893 25.2191C31.2182 27.3363 34.2416 28.6373 37.5714 28.6373C40.8562 28.6373 43.8424 27.3709 46.0623 25.3042C47.332 26.0333 48.5282 26.9365 49.6148 28.0143C56.3325 34.6775 56.3325 45.4807 49.6148 52.1439L40.3919 61.2919C38.7678 62.9027 36.1347 62.9027 34.5106 61.2919L25.2876 52.1439C18.5699 45.4807 18.5699 34.6775 25.2876 28.0143C26.4168 26.8943 27.6639 25.9626 28.9893 25.2191ZM42.2923 35.8347C39.7408 33.3039 35.6039 33.3039 33.0524 35.8347C30.501 38.3655 30.5009 42.4688 33.0524 44.9995L37.6723 49.5818L42.2923 44.9995C44.8438 42.4688 44.8438 38.3655 42.2923 35.8347Z" stroke="#F8F8F8"/>
<path d="M46.1365 16.4606C46.1365 21.2851 42.1935 25.1961 37.3295 25.1961C32.4655 25.1961 28.5225 21.2851 28.5225 16.4606C28.5225 11.6362 32.4655 7.72518 37.3295 7.72518C42.1935 7.72518 46.1365 11.6362 46.1365 16.4606Z" stroke="#F8F8F8"/>
</svg>
